<svg xmlns="http://www.w3.org/2000/svg" width="1410" height="744" viewBox="0 0 1410 744">
<g>
<path d="M 733.87 559.44 C720.96,561.34 695.01,561.35 682.97,559.48 C621.00,549.81 571.08,513.41 543.52,457.77 C525.49,421.39 519.91,379.64 527.58,338.70 C528.49,333.87 529.82,329.32 530.54,328.61 C532.33,326.82 556.72,324.08 580.57,323.00 C632.91,320.62 686.67,327.72 731.96,342.99 C770.25,355.89 810.67,376.35 841.85,398.60 C854.13,407.35 876.32,425.40 880.89,430.34 L 883.27 432.92 L 881.00 439.21 C872.57,462.53 857.48,486.42 839.54,504.86 C809.70,535.53 775.14,553.38 733.87,559.44 ZM 891.45 375.00 C891.48,389.82 891.11,399.16 890.44,400.28 C889.50,401.88 888.60,401.37 881.94,395.46 C854.53,371.11 811.64,344.37 774.50,328.48 C768.45,325.89 763.09,323.38 762.58,322.92 C761.05,321.49 764.67,320.75 767.02,322.01 C768.99,323.06 769.13,322.97 768.50,321.01 C768.05,319.59 768.42,318.20 769.56,316.93 C771.24,315.08 771.22,315.00 769.13,315.00 C767.68,315.00 766.58,314.07 765.86,312.25 L 764.76 309.50 L 763.80 312.25 C763.07,314.31 762.17,315.00 760.19,315.00 C757.57,315.00 757.57,315.01 759.69,316.49 C761.09,317.48 761.64,318.67 761.29,319.99 C761.00,321.10 760.59,322.00 760.38,322.00 C760.16,322.00 750.65,318.88 739.24,315.06 C705.87,303.91 691.39,300.87 652.00,296.79 C632.82,294.81 570.03,295.13 553.84,297.30 C546.87,298.24 540.88,299.00 540.53,299.00 C539.15,299.00 552.41,275.02 558.78,266.00 C567.01,254.34 589.51,231.62 600.63,223.73 C623.92,207.23 649.65,196.23 676.00,191.51 C690.19,188.98 717.76,188.43 732.61,190.39 C810.45,200.66 871.80,258.90 888.65,338.50 C891.20,350.52 891.41,353.28 891.45,375.00 ZM 569.60 424.24 L 569.00 427.23 L 571.59 425.54 C573.94,423.99 574.32,423.98 575.91,425.42 C578.43,427.70 579.09,427.37 577.97,424.42 C577.15,422.26 577.36,421.52 579.24,419.95 L 581.50 418.07 L 578.73 418.03 C576.65,418.01 575.68,417.31 574.86,415.25 L 573.76 412.50 L 572.80 415.25 C572.02,417.46 571.22,418.00 568.69,418.00 L 565.55 418.00 L 567.88 419.63 C569.73,420.93 570.08,421.85 569.60,424.24 ZM 832.57 444.58 C831.94,447.07 832.00,447.11 834.09,445.65 C836.04,444.28 836.51,444.29 838.69,445.72 C841.09,447.29 841.11,447.27 840.41,444.51 C839.85,442.27 840.18,441.36 842.11,439.88 L 844.50 438.04 L 841.33 438.02 C838.79,438.00 837.98,437.46 837.21,435.25 L 836.25 432.50 L 835.51 435.25 C834.92,437.50 834.21,438.01 831.64,438.03 L 828.50 438.07 L 830.86 440.03 C832.67,441.54 833.07,442.60 832.57,444.58 ZM 553.58 345.54 C552.94,348.09 552.99,348.12 555.16,346.60 C557.17,345.19 557.64,345.19 559.73,346.56 C561.99,348.04 562.04,348.01 561.41,345.50 C560.97,343.73 561.32,342.31 562.54,340.96 C564.25,339.06 564.23,339.00 561.72,339.00 C559.92,339.00 558.92,338.32 558.42,336.75 L 557.70 334.50 L 556.70 336.75 C556.04,338.22 554.82,339.00 553.19,339.00 C550.77,339.00 550.75,339.06 552.46,340.96 C553.70,342.32 554.04,343.72 553.58,345.54 ZM 703.92 462.72 C702.96,465.24 702.97,465.25 705.42,463.64 C706.94,462.65 708.13,462.41 708.51,463.01 C709.57,464.73 711.14,464.08 710.81,462.05 C710.64,460.97 711.40,459.41 712.50,458.58 C714.45,457.10 714.43,457.06 711.82,457.03 C709.93,457.01 708.92,456.33 708.42,454.75 L 707.70 452.50 L 706.70 454.75 C706.04,456.22 704.79,457.02 703.10,457.05 L 700.50 457.10 L 702.69 458.64 C704.52,459.91 704.72,460.59 703.92,462.72 ZM 630.31 478.04 C629.71,480.41 629.75,480.44 631.65,478.77 C633.44,477.19 633.80,477.17 635.85,478.61 C638.01,480.12 638.06,480.09 637.42,477.53 C636.93,475.59 637.25,474.52 638.63,473.48 C640.40,472.14 640.35,472.06 637.87,472.03 C636.02,472.01 635.03,471.33 634.57,469.75 L 633.90 467.50 L 632.98 469.75 C632.42,471.12 631.21,472.00 629.88,472.00 C627.84,472.00 627.80,472.12 629.31,473.79 C630.35,474.94 630.71,476.45 630.31,478.04 ZM 840.50 460.99 C839.88,462.95 840.00,463.02 841.91,461.82 C843.63,460.75 844.37,460.75 846.09,461.82 C848.00,463.02 848.12,462.95 847.50,460.99 C847.05,459.60 847.42,458.19 848.56,456.93 C850.25,455.07 850.21,455.00 847.65,455.00 C845.96,455.00 845.00,454.46 845.00,453.50 C845.00,452.67 844.55,452.00 844.00,452.00 C843.45,452.00 843.00,452.67 843.00,453.50 C843.00,454.46 842.04,455.00 840.35,455.00 C837.79,455.00 837.75,455.07 839.44,456.93 C840.58,458.19 840.95,459.60 840.50,460.99 ZM 634.18 386.21 C633.90,387.87 634.11,387.95 635.85,386.86 C637.46,385.86 638.16,385.89 639.52,387.01 C641.00,388.25 641.15,388.17 640.85,386.36 C640.66,385.23 641.12,383.56 641.87,382.65 C643.07,381.21 642.99,381.00 641.19,381.00 C639.94,381.00 638.86,380.12 638.42,378.75 L 637.70 376.50 L 636.70 378.75 C636.15,379.99 634.81,381.00 633.72,381.00 C632.01,381.00 631.93,381.21 633.13,382.65 C633.88,383.56 634.36,385.16 634.18,386.21 ZM 704.15 408.36 C703.86,410.10 704.04,410.21 705.34,409.13 C706.54,408.14 707.36,408.12 709.09,409.05 C711.03,410.09 711.22,410.02 710.63,408.47 C710.22,407.41 710.62,405.97 711.63,404.86 C713.22,403.10 713.19,403.00 711.12,403.00 C709.77,403.00 708.62,402.15 708.11,400.77 L 707.28 398.53 L 706.57 400.77 C706.14,402.12 705.06,403.00 703.81,403.00 C702.01,403.00 701.93,403.21 703.13,404.65 C703.88,405.56 704.34,407.23 704.15,408.36 ZM 725.75 424.85 C725.13,427.24 725.97,427.63 727.80,425.80 C728.73,424.87 729.27,424.87 730.20,425.80 C732.00,427.60 732.88,427.25 732.28,424.95 C731.94,423.65 732.43,422.39 733.62,421.49 C735.39,420.14 735.34,420.06 732.75,420.03 C730.99,420.01 730.00,419.46 730.00,418.50 C730.00,417.67 729.55,417.00 729.00,417.00 C728.45,417.00 728.00,417.67 728.00,418.50 C728.00,419.46 727.03,420.00 725.31,420.00 C722.80,420.00 722.75,420.09 724.46,421.35 C725.68,422.24 726.12,423.43 725.75,424.85 ZM 603.65 460.46 C602.98,462.21 604.53,462.57 605.55,460.91 C606.04,460.13 606.53,460.13 607.31,460.91 C609.05,462.65 610.19,462.17 609.50,460.00 C609.08,458.66 609.39,457.79 610.43,457.39 C612.63,456.54 612.39,455.00 610.05,455.00 C608.98,455.00 607.69,454.28 607.20,453.39 C606.37,451.91 606.25,451.91 605.68,453.39 C605.34,454.28 604.08,455.00 602.88,455.00 C600.77,455.00 600.75,455.07 602.47,456.96 C603.44,458.04 603.98,459.62 603.65,460.46 ZM 547.71 439.99 C547.12,442.25 548.01,442.59 549.80,440.80 C550.73,439.87 551.27,439.87 552.20,440.80 C553.99,442.59 554.88,442.25 554.29,439.99 C554.00,438.89 554.32,437.32 555.00,436.49 C556.04,435.25 555.89,435.00 554.12,435.00 C552.90,435.00 552.00,434.36 552.00,433.50 C552.00,432.67 551.55,432.00 551.00,432.00 C550.45,432.00 550.00,432.67 550.00,433.50 C550.00,434.36 549.10,435.00 547.88,435.00 C546.11,435.00 545.96,435.25 547.00,436.49 C547.68,437.32 548.00,438.89 547.71,439.99 ZM 829.37 474.64 C828.78,477.00 828.89,477.09 830.79,475.90 C832.48,474.84 833.14,474.87 834.58,476.06 C836.19,477.38 836.28,477.28 835.66,474.80 C835.16,472.80 835.44,471.84 836.74,471.08 C838.33,470.16 838.29,470.06 836.32,470.03 C834.95,470.01 833.87,469.16 833.42,467.75 L 832.70 465.50 L 831.70 467.75 C831.13,469.03 829.79,470.01 828.60,470.03 C826.69,470.06 826.66,470.15 828.26,471.08 C829.52,471.82 829.83,472.81 829.37,474.64 ZM 614.45 442.92 C615.56,444.71 616.18,444.14 615.48,441.95 C615.13,440.83 615.38,439.25 616.04,438.45 C617.01,437.28 616.92,437.00 615.59,437.00 C614.68,437.00 613.52,435.99 613.02,434.75 L 612.10 432.50 L 611.43 434.75 C611.03,436.13 609.98,437.00 608.73,437.00 C606.87,437.00 606.83,437.16 608.21,438.75 C609.05,439.71 609.53,441.08 609.27,441.79 C608.93,442.73 609.50,442.91 611.29,442.46 C612.68,442.11 614.08,442.32 614.45,442.92 ZM 760.37 503.50 C760.17,504.05 761.37,504.55 763.04,504.61 C764.87,504.67 765.91,504.28 765.67,503.61 C765.44,503.00 765.95,501.71 766.79,500.75 C768.18,499.15 768.12,499.00 766.15,499.00 C764.91,499.00 764.00,498.37 764.00,497.50 C764.00,496.67 763.55,496.00 763.00,496.00 C762.45,496.00 762.00,496.67 762.00,497.50 C762.00,498.37 761.09,499.00 759.85,499.00 C757.88,499.00 757.82,499.15 759.21,500.75 C760.05,501.71 760.57,502.95 760.37,503.50 ZM 797.00 497.95 C797.00,498.97 798.00,499.53 799.91,499.60 C802.02,499.68 802.68,499.32 802.29,498.30 C801.99,497.53 802.59,496.26 803.62,495.48 C805.46,494.10 805.46,494.06 803.61,494.03 C802.57,494.01 801.12,493.21 800.39,492.25 C799.13,490.58 799.06,490.58 799.03,492.25 C799.01,493.38 798.22,494.00 796.80,494.00 C795.09,494.00 794.87,494.27 795.80,495.20 C796.46,495.86 797.00,497.10 797.00,497.95 ZM 686.23 424.25 C685.72,426.25 685.84,426.35 687.33,425.13 C688.74,423.96 689.26,423.96 690.69,425.13 C692.18,426.34 692.29,426.28 691.67,424.62 C691.28,423.59 691.48,422.13 692.11,421.37 C692.99,420.31 692.90,420.00 691.74,420.00 C690.91,420.00 689.93,418.99 689.57,417.75 L 688.90 415.50 L 687.98 417.75 C687.48,418.99 686.26,420.01 685.28,420.03 C683.66,420.06 683.65,420.15 685.16,421.03 C686.26,421.67 686.62,422.75 686.23,424.25 ZM 859.33 444.62 C858.71,446.28 858.82,446.34 860.31,445.13 C861.74,443.96 862.26,443.96 863.69,445.13 C865.18,446.34 865.29,446.28 864.67,444.62 C864.28,443.59 864.48,442.13 865.11,441.37 C865.99,440.31 865.90,440.00 864.71,440.00 C863.86,440.00 862.90,439.44 862.58,438.75 C862.12,437.75 861.88,437.75 861.42,438.75 C861.10,439.44 860.14,440.00 859.29,440.00 C858.10,440.00 858.01,440.31 858.89,441.37 C859.52,442.13 859.72,443.59 859.33,444.62 ZM 815.63 483.79 C815.33,484.27 816.40,484.67 818.00,484.67 C819.60,484.67 820.67,484.27 820.37,483.79 C820.07,483.31 820.37,482.26 821.04,481.46 C821.99,480.31 821.97,480.00 820.98,480.00 C820.29,480.00 819.12,479.21 818.39,478.25 C817.13,476.58 817.06,476.58 817.03,478.25 C817.01,479.21 816.27,480.00 815.38,480.00 C814.07,480.00 813.99,480.28 814.96,481.46 C815.63,482.26 815.93,483.31 815.63,483.79 ZM 795.25 478.25 C795.88,479.57 797.21,480.50 798.50,480.50 C799.79,480.50 801.12,479.57 801.75,478.25 C802.66,476.33 802.53,476.00 800.91,476.00 C799.86,476.00 798.96,475.44 798.92,474.75 C798.86,473.75 798.74,473.75 798.34,474.75 C798.06,475.44 797.01,476.00 796.01,476.00 C794.47,476.00 794.35,476.35 795.25,478.25 ZM 746.00 480.83 C746.00,481.93 746.83,482.50 748.40,482.50 C749.73,482.50 750.59,482.14 750.32,481.71 C750.05,481.27 750.37,480.26 751.04,479.46 C752.01,478.28 751.93,478.00 750.62,478.00 C749.73,478.00 748.99,477.21 748.97,476.25 C748.94,474.58 748.87,474.58 747.61,476.25 C746.88,477.21 745.65,478.04 744.89,478.08 C743.87,478.14 743.84,478.29 744.75,478.66 C745.44,478.94 746.00,479.92 746.00,480.83 ZM 776.41 486.37 C776.16,487.02 777.04,487.50 778.49,487.50 C780.21,487.50 781.00,486.95 781.00,485.75 C781.00,484.79 781.56,483.97 782.25,483.94 C782.94,483.90 782.49,483.47 781.25,482.97 C780.01,482.47 779.00,481.60 779.00,481.03 C779.00,480.46 778.17,480.79 777.15,481.75 C776.13,482.71 775.65,483.89 776.07,484.37 C776.50,484.85 776.65,485.75 776.41,486.37 ZM 797.41 517.37 C797.16,518.02 798.04,518.50 799.49,518.50 C801.17,518.50 802.00,517.95 802.00,516.83 C802.00,515.92 802.56,514.94 803.25,514.66 C804.02,514.35 803.84,514.13 802.80,514.08 C801.86,514.04 800.64,513.21 800.08,512.25 C799.11,510.58 799.06,510.58 799.03,512.25 C799.01,513.22 798.24,514.00 797.30,514.00 C796.04,514.00 795.89,514.29 796.72,515.12 C797.34,515.74 797.65,516.75 797.41,517.37 ZM 695.61 435.61 C696.31,438.28 699.41,438.09 700.73,435.29 C701.57,433.51 701.51,433.00 700.49,433.00 C699.76,433.00 699.02,432.58 698.83,432.07 C698.18,430.25 695.09,433.64 695.61,435.61 ZM 755.65 367.76 C755.31,368.31 756.15,368.75 757.56,368.75 C758.95,368.75 759.84,368.51 759.55,368.22 C759.26,367.92 759.44,367.17 759.96,366.55 C760.58,365.80 760.25,365.01 758.95,364.20 C757.78,363.47 757.00,363.38 757.00,363.99 C757.00,364.55 756.21,365.01 755.25,365.02 C753.87,365.03 753.79,365.21 754.88,365.90 C755.64,366.38 755.98,367.22 755.65,367.76 ZM 589.74 409.10 C590.26,411.11 593.27,411.06 594.09,409.02 C594.42,408.21 594.09,406.95 593.36,406.22 C592.28,405.14 591.78,405.13 590.67,406.17 C589.92,406.87 589.50,408.19 589.74,409.10 ZM 706.64 521.50 C706.95,522.33 707.57,523.00 708.00,523.00 C708.43,523.00 709.05,522.33 709.36,521.50 C709.75,520.48 709.31,520.00 708.00,520.00 C706.69,520.00 706.25,520.48 706.64,521.50 Z" fill="rgb(0,33,120)"/>
<path d="M 0.00 0.00 L 1410.00 0.00 L 1410.00 744.00 L 0.00 744.00 ZM 669.50 633.68 C689.85,646.96 706.82,657.86 707.20,657.91 C707.59,657.96 789.71,604.82 889.70,539.83 C989.69,474.84 1084.10,413.49 1099.50,403.50 L 1104.65 400.15 C1138.54,378.16 1142.55,375.56 1142.20,374.66 C1142.13,374.49 1141.92,374.38 1141.72,374.22 C1141.05,373.68 1086.28,338.47 1020.00,295.97 C953.72,253.48 882.17,207.59 861.00,193.99 C818.82,166.91 732.28,111.41 716.62,101.38 C711.18,97.90 706.23,95.34 705.62,95.69 C705.00,96.05 679.30,112.62 648.50,132.52 C617.70,152.42 536.92,204.61 469.00,248.49 C282.63,368.90 273.00,375.15 273.02,375.85 C273.03,376.21 283.04,382.95 295.27,390.82 C326.83,411.16 625.13,604.75 669.50,633.68 ZM 554.25 317.21 C548.44,322.26 540.00,318.25 540.00,310.43 C540.00,304.85 546.36,301.58 551.77,304.38 C553.41,305.23 555.04,306.65 555.38,307.54 C556.58,310.68 556.00,315.69 554.25,317.21 ZM 880.08 413.08 C876.56,416.59 872.41,416.90 868.63,413.93 C863.12,409.59 866.83,400.00 874.03,400.00 C877.74,400.00 883.00,404.69 883.00,408.00 C883.00,409.18 881.68,411.47 880.08,413.08 ZM 764.55 342.55 C759.61,347.48 751.00,344.20 751.00,337.38 C751.00,333.38 754.66,329.00 758.00,329.00 C760.88,329.00 765.62,331.58 766.38,333.54 C767.63,336.80 766.94,340.15 764.55,342.55 ZM 600.78 313.44 C598.09,315.32 590.10,315.54 589.55,313.75 C589.34,313.06 588.94,309.69 588.68,306.25 L 588.19 300.00 L 593.37 300.00 C600.58,300.00 603.00,301.88 603.00,307.50 C603.00,310.90 602.50,312.24 600.78,313.44 ZM 808.04 359.49 C806.95,359.83 805.93,361.65 805.37,364.27 C804.78,367.03 804.18,368.06 803.66,367.23 C803.21,366.52 803.14,364.65 803.49,363.06 C803.97,360.87 803.68,359.92 802.31,359.15 C800.86,358.33 800.07,358.66 798.34,360.81 C794.59,365.48 794.67,362.41 798.48,355.59 L 802.15 349.04 L 805.95 350.98 C811.32,353.71 812.40,358.10 808.04,359.49 ZM 570.00 313.50 C570.00,319.18 568.29,317.51 567.10,310.67 L 567.02 310.20 C566.05,304.62 565.66,302.37 566.56,301.53 C567.18,300.97 568.38,301.05 570.40,301.18 L 570.65 301.20 C576.03,301.55 578.25,303.76 576.32,306.86 C575.42,308.31 575.45,309.04 576.47,310.11 C578.29,312.03 579.38,316.00 578.09,316.00 C577.52,316.00 576.35,314.65 575.50,313.00 C574.57,311.20 573.16,310.00 571.97,310.00 C570.38,310.00 570.00,310.68 570.00,313.50 ZM 739.84 334.10 C740.07,336.50 739.79,338.00 739.11,338.00 C737.85,338.00 737.72,337.54 737.96,333.82 C738.08,332.05 737.46,330.78 736.13,330.07 C733.34,328.58 733.24,328.63 732.50,332.00 C732.13,333.69 731.19,335.00 730.35,335.00 C728.76,335.00 728.78,334.88 732.02,325.50 C733.49,321.24 734.09,320.54 736.09,320.78 C741.89,321.46 745.11,326.66 741.23,329.09 C739.91,329.91 739.56,331.17 739.84,334.10 ZM 652.00 310.00 C652.00,314.67 651.58,318.00 651.00,318.00 C650.44,318.00 649.97,315.03 649.93,311.25 L 649.85 304.50 L 646.97 310.75 C645.39,314.19 643.64,317.00 643.10,317.00 C642.55,317.00 641.32,314.23 640.37,310.83 C638.51,304.20 637.21,304.75 637.07,312.25 C637.03,314.31 636.55,316.00 636.00,316.00 C634.88,316.00 634.70,310.43 635.65,304.70 C636.57,299.14 638.93,300.28 641.31,307.43 L 643.29 313.36 L 646.16 307.68 C650.35,299.40 652.00,300.06 652.00,310.00 ZM 544.45 315.55 C547.43,318.52 549.36,318.64 552.00,316.00 C554.56,313.44 554.53,310.95 551.93,307.63 C549.56,304.62 546.48,304.25 543.83,306.65 C541.29,308.96 541.55,312.64 544.45,315.55 ZM 869.57 412.08 C871.69,414.42 874.79,414.54 877.83,412.40 C879.62,411.15 880.04,410.03 879.80,407.17 C879.56,404.23 878.97,403.35 876.75,402.57 C874.54,401.80 873.45,402.02 871.25,403.66 C867.91,406.14 867.24,409.50 869.57,412.08 ZM 753.95 340.91 C754.69,342.29 756.05,343.00 757.96,343.00 C763.19,343.00 766.32,337.66 763.56,333.45 C759.54,327.32 750.45,334.37 753.95,340.91 ZM 711.59 326.50 C711.24,327.88 710.52,329.00 709.98,329.00 C708.66,329.00 708.73,327.98 710.62,320.46 C712.41,313.34 713.54,312.68 719.05,315.53 C721.00,316.54 722.00,317.82 722.00,319.33 C722.00,322.58 720.14,324.00 715.91,324.00 C712.80,324.00 712.12,324.40 711.59,326.50 ZM 591.62 310.88 C592.29,314.21 593.76,314.72 597.32,312.85 C600.10,311.39 600.97,310.06 600.98,307.25 C601.01,304.09 597.56,301.00 594.00,301.00 C591.26,301.00 591.00,301.29 591.00,304.38 C591.00,306.23 591.28,309.16 591.62,310.88 ZM 786.59 353.82 C785.69,355.57 784.85,356.99 784.72,356.98 C782.61,356.77 775.87,352.62 775.00,350.99 C772.55,346.42 776.67,340.00 782.05,340.00 C785.43,340.00 791.00,342.51 791.00,344.03 C791.00,345.38 789.84,345.19 787.56,343.47 C784.90,341.45 780.65,341.63 778.65,343.83 C775.42,347.40 777.16,352.51 782.20,354.30 C783.37,354.71 784.11,354.23 784.58,352.74 C784.99,351.46 784.81,350.44 784.13,350.21 C782.84,349.78 782.58,348.00 783.81,348.00 C784.25,348.00 785.43,348.60 786.43,349.32 C788.13,350.57 788.14,350.83 786.59,353.82 ZM 822.00 377.17 C822.00,377.63 821.66,377.96 821.25,377.92 C819.88,377.77 814.00,373.83 814.00,373.06 C814.00,372.65 815.80,369.53 817.99,366.13 L 821.98 359.96 L 825.99 362.61 C830.81,365.80 831.42,368.04 826.67,365.11 C824.13,363.53 823.07,363.33 822.17,364.23 C820.34,366.06 820.78,367.58 823.50,368.82 C824.88,369.44 826.00,370.42 826.00,370.98 C826.00,372.38 825.34,372.27 822.46,370.38 C820.47,369.08 819.70,369.00 818.49,370.00 C816.32,371.81 816.66,373.48 819.50,375.00 C820.88,375.74 822.00,376.71 822.00,377.17 ZM 686.00 322.00 C686.00,322.55 685.21,322.94 684.25,322.86 C680.90,322.60 677.50,321.83 676.80,321.16 C676.41,320.79 676.57,317.23 677.17,313.25 L 678.24 306.01 L 682.37 306.64 C684.64,306.98 686.95,307.71 687.50,308.26 C688.17,308.92 687.08,309.04 684.25,308.62 C680.24,308.01 680.00,308.11 680.00,310.41 C680.00,312.30 680.67,312.99 683.00,313.50 C687.20,314.42 686.76,316.00 682.50,315.31 C679.27,314.78 679.00,314.94 679.00,317.26 C679.00,319.82 680.60,321.00 684.08,321.00 C685.14,321.00 686.00,321.45 686.00,322.00 ZM 621.00 314.12 C624.09,314.66 623.89,314.75 619.25,314.87 L 614.00 315.00 L 614.00 300.00 L 619.25 300.17 C623.57,300.31 623.84,300.41 620.75,300.73 C617.55,301.06 617.00,301.48 617.00,303.56 C617.00,305.59 617.49,306.00 619.94,306.00 C621.56,306.00 623.16,306.45 623.50,307.00 C623.87,307.60 622.65,308.00 620.49,308.00 C617.13,308.00 616.89,308.20 617.18,310.75 C617.44,313.02 618.11,313.61 621.00,314.12 ZM 841.38 385.76 C839.15,389.33 831.00,387.38 831.00,383.27 C831.00,381.94 831.41,382.04 833.31,383.83 C838.00,388.23 841.33,385.89 838.01,380.52 C836.32,377.78 836.11,376.67 836.98,375.04 C837.58,373.92 838.75,373.00 839.58,373.00 C841.73,373.00 847.00,375.86 847.00,377.03 C847.00,378.48 845.41,378.20 844.00,376.50 C843.32,375.67 842.16,375.00 841.44,375.00 C839.05,375.00 838.75,377.11 840.62,380.60 C842.03,383.22 842.21,384.44 841.38,385.76 ZM 858.04 398.45 C856.14,400.74 851.68,400.35 849.17,397.68 C847.96,396.40 847.28,395.05 847.65,394.68 C848.02,394.31 848.95,394.91 849.72,396.01 C850.49,397.12 852.25,398.00 853.67,398.00 C855.97,398.00 856.16,397.72 855.53,395.25 C855.15,393.74 854.76,391.15 854.66,389.50 C854.52,386.84 854.85,386.47 857.55,386.20 C859.63,386.00 861.19,386.56 862.46,387.96 C864.77,390.51 863.69,391.93 861.18,389.66 C859.18,387.85 856.00,387.42 856.00,388.97 C856.00,389.50 856.75,391.50 857.66,393.42 C859.03,396.28 859.10,397.18 858.04,398.45 ZM 713.45 319.32 C712.77,322.04 712.87,322.13 716.12,321.82 C720.41,321.41 721.25,318.53 717.57,316.85 C714.57,315.48 714.39,315.59 713.45,319.32 ZM 568.76 305.52 C569.11,307.34 569.87,308.00 571.65,308.00 C574.63,308.00 575.80,305.37 573.75,303.32 C571.42,300.99 568.17,302.43 568.76,305.52 ZM 802.16 357.12 C805.78,359.42 809.56,356.58 806.99,353.49 C805.27,351.42 803.71,351.63 802.15,354.13 C801.04,355.91 801.04,356.41 802.16,357.12 ZM 735.71 328.24 C737.77,328.71 741.00,327.36 741.00,326.02 C741.00,324.66 736.69,321.90 735.90,322.76 C735.53,323.17 734.93,324.48 734.57,325.67 C734.09,327.27 734.39,327.94 735.71,328.24 Z" fill="rgb(0,155,45)"/>
<path d="M 883.00 432.62 L 880.89 430.34 C876.32,425.40 854.13,407.35 841.85,398.60 C810.67,376.35 770.25,355.89 731.96,342.99 C686.67,327.72 632.91,320.62 580.57,323.00 C556.72,324.08 532.33,326.82 530.54,328.61 C530.18,328.96 529.68,330.24 529.15,332.04 C530.53,326.14 532.19,320.29 534.14,314.50 C535.73,309.78 537.91,304.41 540.43,298.87 C540.44,298.96 540.47,299.00 540.53,299.00 C540.88,299.00 546.87,298.24 553.84,297.30 C570.03,295.13 632.82,294.81 652.00,296.79 C691.39,300.87 705.87,303.91 739.24,315.06 C750.65,318.88 760.16,322.00 760.38,322.00 C760.59,322.00 761.00,321.10 761.29,319.99 C761.64,318.67 761.09,317.48 759.69,316.49 C757.57,315.01 757.57,315.00 760.19,315.00 C762.17,315.00 763.07,314.31 763.80,312.25 L 764.76 309.50 L 765.86 312.25 C766.58,314.07 767.68,315.00 769.13,315.00 C771.22,315.00 771.24,315.08 769.56,316.93 C768.42,318.20 768.05,319.59 768.50,321.01 C769.13,322.97 768.99,323.06 767.02,322.01 C764.67,320.75 761.05,321.49 762.58,322.92 C763.09,323.38 768.45,325.89 774.50,328.48 C811.64,344.37 854.53,371.11 881.94,395.46 C888.39,401.18 889.43,401.84 890.35,400.43 C888.70,411.65 886.25,422.38 883.00,432.62 ZM 554.25 317.21 C556.00,315.69 556.58,310.68 555.38,307.54 C555.04,306.65 553.41,305.23 551.77,304.38 C546.36,301.58 540.00,304.85 540.00,310.43 C540.00,318.25 548.44,322.26 554.25,317.21 ZM 880.08 413.08 C881.68,411.47 883.00,409.18 883.00,408.00 C883.00,404.69 877.74,400.00 874.03,400.00 C866.83,400.00 863.12,409.59 868.63,413.93 C872.41,416.90 876.56,416.59 880.08,413.08 ZM 764.55 342.55 C766.94,340.15 767.63,336.80 766.38,333.54 C765.62,331.58 760.88,329.00 758.00,329.00 C754.66,329.00 751.00,333.38 751.00,337.38 C751.00,344.20 759.61,347.48 764.55,342.55 ZM 600.78 313.44 C602.50,312.24 603.00,310.90 603.00,307.50 C603.00,301.88 600.58,300.00 593.37,300.00 L 588.19 300.00 L 588.68 306.25 C588.94,309.69 589.34,313.06 589.55,313.75 C590.10,315.54 598.09,315.32 600.78,313.44 ZM 808.04 359.49 C812.40,358.10 811.32,353.71 805.95,350.98 L 802.15 349.04 L 798.48 355.59 C794.67,362.41 794.59,365.48 798.34,360.81 C800.07,358.66 800.86,358.33 802.31,359.15 C803.68,359.92 803.97,360.87 803.49,363.06 C803.14,364.65 803.21,366.52 803.66,367.23 C804.18,368.06 804.78,367.03 805.37,364.27 C805.93,361.65 806.95,359.83 808.04,359.49 ZM 570.00 313.50 C570.00,310.68 570.38,310.00 571.97,310.00 C573.16,310.00 574.57,311.20 575.50,313.00 C576.35,314.65 577.52,316.00 578.09,316.00 C579.38,316.00 578.29,312.03 576.47,310.11 C575.45,309.04 575.42,308.31 576.32,306.86 C578.25,303.76 576.03,301.55 570.65,301.20 L 570.40 301.18 C568.38,301.05 567.18,300.97 566.56,301.53 C565.66,302.37 566.05,304.62 567.02,310.20 L 567.10 310.67 C568.29,317.51 570.00,319.18 570.00,313.50 ZM 739.84 334.10 C739.56,331.17 739.91,329.91 741.23,329.09 C745.11,326.66 741.89,321.46 736.09,320.78 C734.09,320.54 733.49,321.24 732.02,325.50 C728.78,334.88 728.76,335.00 730.35,335.00 C731.19,335.00 732.13,333.69 732.50,332.00 C733.24,328.63 733.34,328.58 736.13,330.07 C737.46,330.78 738.08,332.05 737.96,333.82 C737.72,337.54 737.85,338.00 739.11,338.00 C739.79,338.00 740.07,336.50 739.84,334.10 ZM 652.00 310.00 C652.00,300.06 650.35,299.40 646.16,307.68 L 643.29 313.36 L 641.31 307.43 C638.93,300.28 636.57,299.14 635.65,304.70 C634.70,310.43 634.88,316.00 636.00,316.00 C636.55,316.00 637.03,314.31 637.07,312.25 C637.21,304.75 638.51,304.20 640.37,310.83 C641.32,314.23 642.55,317.00 643.10,317.00 C643.64,317.00 645.39,314.19 646.97,310.75 L 649.85 304.50 L 649.93 311.25 C649.97,315.03 650.44,318.00 651.00,318.00 C651.58,318.00 652.00,314.67 652.00,310.00 ZM 544.45 315.55 C541.55,312.64 541.29,308.96 543.83,306.65 C546.48,304.25 549.56,304.62 551.93,307.63 C554.53,310.95 554.56,313.44 552.00,316.00 C549.36,318.64 547.43,318.52 544.45,315.55 ZM 869.57 412.08 C867.24,409.50 867.91,406.14 871.25,403.66 C873.45,402.02 874.54,401.80 876.75,402.57 C878.97,403.35 879.56,404.23 879.80,407.17 C880.04,410.03 879.62,411.15 877.83,412.40 C874.79,414.54 871.69,414.42 869.57,412.08 ZM 753.95 340.91 C750.45,334.37 759.54,327.32 763.56,333.45 C766.32,337.66 763.19,343.00 757.96,343.00 C756.05,343.00 754.69,342.29 753.95,340.91 ZM 711.59 326.50 C712.12,324.40 712.80,324.00 715.91,324.00 C720.14,324.00 722.00,322.58 722.00,319.33 C722.00,317.82 721.00,316.54 719.05,315.53 C713.54,312.68 712.41,313.34 710.62,320.46 C708.73,327.98 708.66,329.00 709.98,329.00 C710.52,329.00 711.24,327.88 711.59,326.50 ZM 591.62 310.88 C591.28,309.16 591.00,306.23 591.00,304.38 C591.00,301.29 591.26,301.00 594.00,301.00 C597.56,301.00 601.01,304.09 600.98,307.25 C600.97,310.06 600.10,311.39 597.32,312.85 C593.76,314.72 592.29,314.21 591.62,310.88 ZM 786.59 353.82 C788.14,350.83 788.13,350.57 786.43,349.32 C785.43,348.60 784.25,348.00 783.81,348.00 C782.58,348.00 782.84,349.78 784.13,350.21 C784.81,350.44 784.99,351.46 784.58,352.74 C784.11,354.23 783.37,354.71 782.20,354.30 C777.16,352.51 775.42,347.40 778.65,343.83 C780.65,341.63 784.90,341.45 787.56,343.47 C789.84,345.19 791.00,345.38 791.00,344.03 C791.00,342.51 785.43,340.00 782.05,340.00 C776.67,340.00 772.55,346.42 775.00,350.99 C775.87,352.62 782.61,356.77 784.72,356.98 C784.85,356.99 785.69,355.57 786.59,353.82 ZM 569.60 424.24 C570.08,421.85 569.73,420.93 567.88,419.63 L 565.55 418.00 L 568.69 418.00 C571.22,418.00 572.02,417.46 572.80,415.25 L 573.76 412.50 L 574.86 415.25 C575.68,417.31 576.65,418.01 578.73,418.03 L 581.50 418.07 L 579.24 419.95 C577.36,421.52 577.15,422.26 577.97,424.42 C579.09,427.37 578.43,427.70 575.91,425.42 C574.32,423.98 573.94,423.99 571.59,425.54 L 569.00 427.23 ZM 832.57 444.58 C833.07,442.60 832.67,441.54 830.86,440.03 L 828.50 438.07 L 831.64 438.03 C834.21,438.01 834.92,437.50 835.51,435.25 L 836.25 432.50 L 837.21 435.25 C837.98,437.46 838.79,438.00 841.33,438.02 L 844.50 438.04 L 842.11 439.88 C840.18,441.36 839.85,442.27 840.41,444.51 C841.11,447.27 841.09,447.29 838.69,445.72 C836.51,444.29 836.04,444.28 834.09,445.65 C832.00,447.11 831.94,447.07 832.57,444.58 ZM 822.00 377.17 C822.00,376.71 820.88,375.74 819.50,375.00 C816.66,373.48 816.32,371.81 818.49,370.00 C819.70,369.00 820.47,369.08 822.46,370.38 C825.34,372.27 826.00,372.38 826.00,370.98 C826.00,370.42 824.88,369.44 823.50,368.82 C820.78,367.58 820.34,366.06 822.17,364.23 C823.07,363.33 824.13,363.53 826.67,365.11 C831.42,368.04 830.81,365.80 825.99,362.61 L 821.98 359.96 L 817.99 366.13 C815.80,369.53 814.00,372.65 814.00,373.06 C814.00,373.83 819.88,377.77 821.25,377.92 C821.66,377.96 822.00,377.63 822.00,377.17 ZM 553.58 345.54 C554.04,343.72 553.70,342.32 552.46,340.96 C550.75,339.06 550.77,339.00 553.19,339.00 C554.82,339.00 556.04,338.22 556.70,336.75 L 557.70 334.50 L 558.42 336.75 C558.92,338.32 559.92,339.00 561.72,339.00 C564.23,339.00 564.25,339.06 562.54,340.96 C561.32,342.31 560.97,343.73 561.41,345.50 C562.04,348.01 561.99,348.04 559.73,346.56 C557.64,345.19 557.17,345.19 555.16,346.60 C552.99,348.12 552.94,348.09 553.58,345.54 ZM 686.00 322.00 C686.00,321.45 685.14,321.00 684.08,321.00 C680.60,321.00 679.00,319.82 679.00,317.26 C679.00,314.94 679.27,314.78 682.50,315.31 C686.76,316.00 687.20,314.42 683.00,313.50 C680.67,312.99 680.00,312.30 680.00,310.41 C680.00,308.11 680.24,308.01 684.25,308.62 C687.08,309.04 688.17,308.92 687.50,308.26 C686.95,307.71 684.64,306.98 682.37,306.64 L 678.24 306.01 L 677.17 313.25 C676.57,317.23 676.41,320.79 676.80,321.16 C677.50,321.83 680.90,322.60 684.25,322.86 C685.21,322.94 686.00,322.55 686.00,322.00 ZM 621.00 314.12 C618.11,313.61 617.44,313.02 617.18,310.75 C616.89,308.20 617.13,308.00 620.49,308.00 C622.65,308.00 623.87,307.60 623.50,307.00 C623.16,306.45 621.56,306.00 619.94,306.00 C617.49,306.00 617.00,305.59 617.00,303.56 C617.00,301.48 617.55,301.06 620.75,300.73 C623.84,300.41 623.57,300.31 619.25,300.17 L 614.00 300.00 L 614.00 315.00 L 619.25 314.87 C623.89,314.75 624.09,314.66 621.00,314.12 ZM 841.38 385.76 C842.21,384.44 842.03,383.22 840.62,380.60 C838.75,377.11 839.05,375.00 841.44,375.00 C842.16,375.00 843.32,375.67 844.00,376.50 C845.41,378.20 847.00,378.48 847.00,377.03 C847.00,375.86 841.73,373.00 839.58,373.00 C838.75,373.00 837.58,373.92 836.98,375.04 C836.11,376.67 836.32,377.78 838.01,380.52 C841.33,385.89 838.00,388.23 833.31,383.83 C831.41,382.04 831.00,381.94 831.00,383.27 C831.00,387.38 839.15,389.33 841.38,385.76 ZM 703.92 462.72 C704.72,460.59 704.52,459.91 702.69,458.64 L 700.50 457.10 L 703.10 457.05 C704.79,457.02 706.04,456.22 706.70,454.75 L 707.70 452.50 L 708.42 454.75 C708.92,456.33 709.93,457.01 711.82,457.03 C714.43,457.06 714.45,457.10 712.50,458.58 C711.40,459.41 710.64,460.97 710.81,462.05 C711.14,464.08 709.57,464.73 708.51,463.01 C708.13,462.41 706.94,462.65 705.42,463.64 C702.97,465.25 702.96,465.24 703.92,462.72 ZM 630.31 478.04 C630.71,476.45 630.35,474.94 629.31,473.79 C627.80,472.12 627.84,472.00 629.88,472.00 C631.21,472.00 632.42,471.12 632.98,469.75 L 633.90 467.50 L 634.57 469.75 C635.03,471.33 636.02,472.01 637.87,472.03 C640.35,472.06 640.40,472.14 638.63,473.48 C637.25,474.52 636.93,475.59 637.42,477.53 C638.06,480.09 638.01,480.12 635.85,478.61 C633.80,477.17 633.44,477.19 631.65,478.77 C629.75,480.44 629.71,480.41 630.31,478.04 ZM 840.50 460.99 C840.95,459.60 840.58,458.19 839.44,456.93 C837.75,455.07 837.79,455.00 840.35,455.00 C842.04,455.00 843.00,454.46 843.00,453.50 C843.00,452.67 843.45,452.00 844.00,452.00 C844.55,452.00 845.00,452.67 845.00,453.50 C845.00,454.46 845.96,455.00 847.65,455.00 C850.21,455.00 850.25,455.07 848.56,456.93 C847.42,458.19 847.05,459.60 847.50,460.99 C848.12,462.95 848.00,463.02 846.09,461.82 C844.37,460.75 843.63,460.75 841.91,461.82 C840.00,463.02 839.88,462.95 840.50,460.99 ZM 858.04 398.45 C859.10,397.18 859.03,396.28 857.66,393.42 C856.75,391.50 856.00,389.50 856.00,388.97 C856.00,387.42 859.18,387.85 861.18,389.66 C863.69,391.93 864.77,390.51 862.46,387.96 C861.19,386.56 859.63,386.00 857.55,386.20 C854.85,386.47 854.52,386.84 854.66,389.50 C854.76,391.15 855.15,393.74 855.53,395.25 C856.16,397.72 855.97,398.00 853.67,398.00 C852.25,398.00 850.49,397.12 849.72,396.01 C848.95,394.91 848.02,394.31 847.65,394.68 C847.28,395.05 847.96,396.40 849.17,397.68 C851.68,400.35 856.14,400.74 858.04,398.45 ZM 634.18 386.21 C634.36,385.16 633.88,383.56 633.13,382.65 C631.93,381.21 632.01,381.00 633.72,381.00 C634.81,381.00 636.15,379.99 636.70,378.75 L 637.70 376.50 L 638.42 378.75 C638.86,380.12 639.94,381.00 641.19,381.00 C642.99,381.00 643.07,381.21 641.87,382.65 C641.12,383.56 640.66,385.23 640.85,386.36 C641.15,388.17 641.00,388.25 639.52,387.01 C638.16,385.89 637.46,385.86 635.85,386.86 C634.11,387.95 633.90,387.87 634.18,386.21 ZM 704.15 408.36 C704.34,407.23 703.88,405.56 703.13,404.65 C701.93,403.21 702.01,403.00 703.81,403.00 C705.06,403.00 706.14,402.12 706.57,400.77 L 707.28 398.53 L 708.11 400.77 C708.62,402.15 709.77,403.00 711.12,403.00 C713.19,403.00 713.22,403.10 711.63,404.86 C710.62,405.97 710.22,407.41 710.63,408.47 C711.22,410.02 711.03,410.09 709.09,409.05 C707.36,408.12 706.54,408.14 705.34,409.13 C704.04,410.21 703.86,410.10 704.15,408.36 ZM 725.75 424.85 C726.12,423.43 725.68,422.24 724.46,421.35 C722.75,420.09 722.80,420.00 725.31,420.00 C727.03,420.00 728.00,419.46 728.00,418.50 C728.00,417.67 728.45,417.00 729.00,417.00 C729.55,417.00 730.00,417.67 730.00,418.50 C730.00,419.46 730.99,420.01 732.75,420.03 C735.34,420.06 735.39,420.14 733.62,421.49 C732.43,422.39 731.94,423.65 732.28,424.95 C732.88,427.25 732.00,427.60 730.20,425.80 C729.27,424.87 728.73,424.87 727.80,425.80 C725.97,427.63 725.13,427.24 725.75,424.85 ZM 603.65 460.46 C603.98,459.62 603.44,458.04 602.47,456.96 C600.75,455.07 600.77,455.00 602.88,455.00 C604.08,455.00 605.34,454.28 605.68,453.39 C606.25,451.91 606.37,451.91 607.20,453.39 C607.69,454.28 608.98,455.00 610.05,455.00 C612.39,455.00 612.63,456.54 610.43,457.39 C609.39,457.79 609.08,458.66 609.50,460.00 C610.19,462.17 609.05,462.65 607.31,460.91 C606.53,460.13 606.04,460.13 605.55,460.91 C604.53,462.57 602.98,462.21 603.65,460.46 ZM 547.71 439.99 C548.00,438.89 547.68,437.32 547.00,436.49 C545.96,435.25 546.11,435.00 547.88,435.00 C549.10,435.00 550.00,434.36 550.00,433.50 C550.00,432.67 550.45,432.00 551.00,432.00 C551.55,432.00 552.00,432.67 552.00,433.50 C552.00,434.36 552.90,435.00 554.12,435.00 C555.89,435.00 556.04,435.25 555.00,436.49 C554.32,437.32 554.00,438.89 554.29,439.99 C554.88,442.25 553.99,442.59 552.20,440.80 C551.27,439.87 550.73,439.87 549.80,440.80 C548.01,442.59 547.12,442.25 547.71,439.99 ZM 829.37 474.64 C829.83,472.81 829.52,471.82 828.26,471.08 C826.66,470.15 826.69,470.06 828.60,470.03 C829.79,470.01 831.13,469.03 831.70,467.75 L 832.70 465.50 L 833.42 467.75 C833.87,469.16 834.95,470.01 836.32,470.03 C838.29,470.06 838.33,470.16 836.74,471.08 C835.44,471.84 835.16,472.80 835.66,474.80 C836.28,477.28 836.19,477.38 834.58,476.06 C833.14,474.87 832.48,474.84 830.79,475.90 C828.89,477.09 828.78,477.00 829.37,474.64 ZM 614.45 442.92 C614.08,442.32 612.68,442.11 611.29,442.46 C609.50,442.91 608.93,442.73 609.27,441.79 C609.53,441.08 609.05,439.71 608.21,438.75 C606.83,437.16 606.87,437.00 608.73,437.00 C609.98,437.00 611.03,436.13 611.43,434.75 L 612.10 432.50 L 613.02 434.75 C613.52,435.99 614.68,437.00 615.59,437.00 C616.92,437.00 617.01,437.28 616.04,438.45 C615.38,439.25 615.13,440.83 615.48,441.95 C616.18,444.14 615.56,444.71 614.45,442.92 ZM 760.37 503.50 C760.57,502.95 760.05,501.71 759.21,500.75 C757.82,499.15 757.88,499.00 759.85,499.00 C761.09,499.00 762.00,498.37 762.00,497.50 C762.00,496.67 762.45,496.00 763.00,496.00 C763.55,496.00 764.00,496.67 764.00,497.50 C764.00,498.37 764.91,499.00 766.15,499.00 C768.12,499.00 768.18,499.15 766.79,500.75 C765.95,501.71 765.44,503.00 765.67,503.61 C765.91,504.28 764.87,504.67 763.04,504.61 C761.37,504.55 760.17,504.05 760.37,503.50 ZM 797.00 497.95 C797.00,497.10 796.46,495.86 795.80,495.20 C794.87,494.27 795.09,494.00 796.80,494.00 C798.22,494.00 799.01,493.38 799.03,492.25 C799.06,490.58 799.13,490.58 800.39,492.25 C801.12,493.21 802.57,494.01 803.61,494.03 C805.46,494.06 805.46,494.10 803.62,495.48 C802.59,496.26 801.99,497.53 802.29,498.30 C802.68,499.32 802.02,499.68 799.91,499.60 C798.00,499.53 797.00,498.97 797.00,497.95 ZM 686.23 424.25 C686.62,422.75 686.26,421.67 685.16,421.03 C683.65,420.15 683.66,420.06 685.28,420.03 C686.26,420.01 687.48,418.99 687.98,417.75 L 688.90 415.50 L 689.57 417.75 C689.93,418.99 690.91,420.00 691.74,420.00 C692.90,420.00 692.99,420.31 692.11,421.37 C691.48,422.13 691.28,423.59 691.67,424.62 C692.29,426.28 692.18,426.34 690.69,425.13 C689.26,423.96 688.74,423.96 687.33,425.13 C685.84,426.35 685.72,426.25 686.23,424.25 ZM 859.33 444.62 C859.72,443.59 859.52,442.13 858.89,441.37 C858.01,440.31 858.10,440.00 859.29,440.00 C860.14,440.00 861.10,439.44 861.42,438.75 C861.88,437.75 862.12,437.75 862.58,438.75 C862.90,439.44 863.86,440.00 864.71,440.00 C865.90,440.00 865.99,440.31 865.11,441.37 C864.48,442.13 864.28,443.59 864.67,444.62 C865.29,446.28 865.18,446.34 863.69,445.13 C862.26,443.96 861.74,443.96 860.31,445.13 C858.82,446.34 858.71,446.28 859.33,444.62 ZM 815.63 483.79 C815.93,483.31 815.63,482.26 814.96,481.46 C813.99,480.28 814.07,480.00 815.38,480.00 C816.27,480.00 817.01,479.21 817.03,478.25 C817.06,476.58 817.13,476.58 818.39,478.25 C819.12,479.21 820.29,480.00 820.98,480.00 C821.97,480.00 821.99,480.31 821.04,481.46 C820.37,482.26 820.07,483.31 820.37,483.79 C820.67,484.27 819.60,484.67 818.00,484.67 C816.40,484.67 815.33,484.27 815.63,483.79 ZM 713.45 319.32 C714.39,315.59 714.57,315.48 717.57,316.85 C721.25,318.53 720.41,321.41 716.12,321.82 C712.87,322.13 712.77,322.04 713.45,319.32 ZM 795.25 478.25 C794.35,476.35 794.47,476.00 796.01,476.00 C797.01,476.00 798.06,475.44 798.34,474.75 C798.74,473.75 798.86,473.75 798.92,474.75 C798.96,475.44 799.86,476.00 800.91,476.00 C802.53,476.00 802.66,476.33 801.75,478.25 C801.12,479.57 799.79,480.50 798.50,480.50 C797.21,480.50 795.88,479.57 795.25,478.25 ZM 568.76 305.52 C568.17,302.43 571.42,300.99 573.75,303.32 C575.80,305.37 574.63,308.00 571.65,308.00 C569.87,308.00 569.11,307.34 568.76,305.52 ZM 802.16 357.12 C801.04,356.41 801.04,355.91 802.15,354.13 C803.71,351.63 805.27,351.42 806.99,353.49 C809.56,356.58 805.78,359.42 802.16,357.12 ZM 746.00 480.83 C746.00,479.92 745.44,478.94 744.75,478.66 C743.84,478.29 743.87,478.14 744.89,478.08 C745.65,478.04 746.88,477.21 747.61,476.25 C748.87,474.58 748.94,474.58 748.97,476.25 C748.99,477.21 749.73,478.00 750.62,478.00 C751.93,478.00 752.01,478.28 751.04,479.46 C750.37,480.26 750.05,481.27 750.32,481.71 C750.59,482.14 749.73,482.50 748.40,482.50 C746.83,482.50 746.00,481.93 746.00,480.83 ZM 776.41 486.37 C776.65,485.75 776.50,484.85 776.07,484.37 C775.65,483.89 776.13,482.71 777.15,481.75 C778.17,480.79 779.00,480.46 779.00,481.03 C779.00,481.60 780.01,482.47 781.25,482.97 C782.49,483.47 782.94,483.90 782.25,483.94 C781.56,483.97 781.00,484.79 781.00,485.75 C781.00,486.95 780.21,487.50 778.49,487.50 C777.04,487.50 776.16,487.02 776.41,486.37 ZM 797.41 517.37 C797.65,516.75 797.34,515.74 796.72,515.12 C795.89,514.29 796.04,514.00 797.30,514.00 C798.24,514.00 799.01,513.22 799.03,512.25 C799.06,510.58 799.11,510.58 800.08,512.25 C800.64,513.21 801.86,514.04 802.80,514.08 C803.84,514.13 804.02,514.35 803.25,514.66 C802.56,514.94 802.00,515.92 802.00,516.83 C802.00,517.95 801.17,518.50 799.49,518.50 C798.04,518.50 797.16,518.02 797.41,517.37 ZM 735.71 328.24 C734.39,327.94 734.09,327.27 734.57,325.67 C734.93,324.48 735.53,323.17 735.90,322.76 C736.69,321.90 741.00,324.66 741.00,326.02 C741.00,327.36 737.77,328.71 735.71,328.24 ZM 695.61 435.61 C695.09,433.64 698.18,430.25 698.83,432.07 C699.02,432.58 699.76,433.00 700.49,433.00 C701.51,433.00 701.57,433.51 700.73,435.29 C699.41,438.09 696.31,438.28 695.61,435.61 ZM 755.65 367.76 C755.98,367.22 755.64,366.38 754.88,365.90 C753.79,365.21 753.87,365.03 755.25,365.02 C756.21,365.01 757.00,364.55 757.00,363.99 C757.00,363.38 757.78,363.47 758.95,364.20 C760.25,365.01 760.58,365.80 759.96,366.55 C759.44,367.17 759.26,367.92 759.55,368.22 C759.84,368.51 758.95,368.75 757.56,368.75 C756.15,368.75 755.31,368.31 755.65,367.76 ZM 589.74 409.10 C589.50,408.19 589.92,406.87 590.67,406.17 C591.78,405.13 592.28,405.14 593.36,406.22 C594.09,406.95 594.42,408.21 594.09,409.02 C593.27,411.06 590.26,411.11 589.74,409.10 ZM 891.45 375.00 C891.44,369.13 891.42,364.65 891.34,360.99 C892.15,373.14 892.15,385.94 891.12,394.67 C891.35,390.29 891.47,383.56 891.45,375.00 ZM 706.64 521.50 C706.25,520.48 706.69,520.00 708.00,520.00 C709.31,520.00 709.75,520.48 709.36,521.50 C709.05,522.33 708.43,523.00 708.00,523.00 C707.57,523.00 706.95,522.33 706.64,521.50 ZM 886.37 328.88 C878.59,299.23 864.51,272.83 845.68,251.17 C864.65,272.91 878.77,299.34 886.37,328.88 ZM 872.17 459.31 C863.84,475.89 852.98,491.04 839.54,504.86 C852.32,491.72 863.66,475.80 872.17,459.31 ZM 524.39 366.74 C523.10,398.38 529.60,429.67 543.51,457.76 C529.46,429.40 523.03,398.05 524.39,366.74 ZM 548.47 282.79 C551.89,276.54 555.45,270.69 558.77,266.00 C561.81,261.69 566.81,255.87 572.45,249.85 C582.08,239.58 593.62,228.70 600.63,223.73 C593.63,228.70 582.09,239.57 572.45,249.85 C566.81,255.87 561.82,261.69 558.78,266.00 C556.05,269.87 552.04,276.49 548.47,282.79 Z" fill="rgb(245,247,248)"/>
<path d="M 669.50 633.68 C625.13,604.75 326.83,411.16 295.27,390.82 C283.04,382.95 273.03,376.21 273.02,375.85 C273.00,375.15 282.63,368.90 469.00,248.49 C536.92,204.61 617.70,152.42 648.50,132.52 C679.30,112.62 705.00,96.05 705.62,95.69 C706.23,95.34 711.18,97.90 716.62,101.38 C732.28,111.41 818.82,166.91 861.00,193.99 C882.17,207.59 953.72,253.48 1020.00,295.97 C1086.28,338.47 1141.05,373.68 1141.72,374.22 C1143.07,375.30 1144.88,374.05 1099.50,403.50 C1084.10,413.49 989.69,474.84 889.70,539.83 C789.71,604.82 707.59,657.96 707.20,657.91 C706.82,657.86 689.85,646.96 669.50,633.68 ZM 733.87 559.44 C775.14,553.38 809.70,535.53 839.54,504.86 C868.72,474.86 885.73,438.60 891.08,395.00 C892.89,380.22 891.67,353.35 888.49,338.00 C872.17,259.30 810.22,200.63 732.61,190.39 C717.76,188.43 690.19,188.98 676.00,191.51 C649.65,196.23 623.92,207.23 600.63,223.73 C589.53,231.60 567.01,254.34 558.77,266.00 C549.82,278.66 539.11,299.75 534.14,314.50 C518.19,361.85 521.57,413.47 543.52,457.77 C571.08,513.41 621.00,549.81 682.97,559.48 C695.01,561.35 720.96,561.34 733.87,559.44 Z" fill="rgb(253,223,1)"/>
</g>
</svg>